# xmcd
#
# Track frame offsets: 
#        150
#        13422
#        27279
#        41173
#        54001
#        66443
#        81372
#        94650
#        109568
#        123796
#        136791
#        149578
#        163525
#        176758
#        189263
#        203759
#        217573
#        229347
#        243607
#        259347
#        273512
#        285829
#        300395
#        313229
#        329262
#
# Disc length: 4572 seconds
#
# Revision: 4
# Processed by: cddbd v1.5.2PL0 Copyright (c) Steve Scherf et al.
# Submitted via: ExactAudioCopyFreeDBPlugin 1.0
#
DISCID=6211da19
DTITLE=Carter Family, The - Carter Family 1927-1934 disc D
DYEAR=1932
DGENRE=Folklore
TTITLE0=I Never Loved But One
TTITLE1=Tell Me That You Love Me
TTITLE2=Where We'll Never Grow Old
TTITLE3=We Will March Through the Streets Of The City
TTITLE4=Sweet As The Flowers In Maytime
TTITLE5=Will The Roses Bloom In Heaven
TTITLE6=My Little Home In Tennessee
TTITLE7=Sun Of The Soul, The
TTITLE8=If One Won't, Another One Will
TTITLE9=Broken Hearted Love
TTITLE10=Two Sweethearts
TTITLE11=Winding Stream, The
TTITLE12=I Wouldn't Mind Dying
TTITLE13=Spirit Of Love Watches Over Me, The
TTITLE14=Church In The Wildwood, The
TTITLE15=Give Me Roses While I Live
TTITLE16=I Will Never Marry
TTITLE17=On The Sea Of Galilee
TTITLE18=Home By the Sea
TTITLE19=I Loved You Better Than You Knew
TTITLE20=This Is Like Heaven To Me
TTITLE21=See That My Grave Is Kept Green
TTITLE22=Over The Garden Wall
TTITLE23=Gold Watch And Chain
TTITLE24=Will My Mother Know Me There
EXTD=
EXTT0=
EXTT1=
EXTT2=
EXTT3=
EXTT4=
EXTT5=
EXTT6=
EXTT7=
EXTT8=
EXTT9=
EXTT10=
EXTT11=
EXTT12=
EXTT13=
EXTT14=
EXTT15=
EXTT16=
EXTT17=
EXTT18=
EXTT19=
EXTT20=
EXTT21=
EXTT22=
EXTT23=
EXTT24=
PLAYORDER=
